<svg width="181" height="24" viewBox="0 0 181 24" fill="#FFF" xmlns="http://www.w3.org/2000/svg">
<path d="M16.0438 11.1009H21.6036V20.327C20.3324 21.2391 18.8713 21.9389 17.2204 22.4265C15.5696 22.9141 13.9168 23.1578 12.2622 23.1576C9.93237 23.1576 7.83552 22.6645 5.97166 21.6783C4.10779 20.6922 2.64675 19.319 1.58852 17.5588C0.529507 15.799 0 13.8059 0 11.5795C0 9.35314 0.529507 7.35954 1.58852 5.59874C2.64753 3.83892 4.11946 2.46575 6.00431 1.47921C7.88916 0.492678 10.0179 -0.000392495 12.3905 2.34419e-07C14.4661 2.34419e-07 16.33 0.349922 17.982 1.04977C19.6341 1.74961 21.0108 2.75666 22.1122 4.07093L18.1085 7.6971C16.6047 6.04351 14.8045 5.21672 12.7079 5.21672C10.8012 5.21672 9.26558 5.79462 8.10086 6.95042C6.93614 8.10622 6.35378 9.64906 6.35378 11.5789C6.35378 12.809 6.61854 13.9064 7.14804 14.8714C7.66103 15.8197 8.43206 16.603 9.37168 17.1302C10.3252 17.6708 11.4162 17.9411 12.6446 17.9411C13.8515 17.9411 14.9846 17.6972 16.044 17.2092L16.0438 11.1009Z" fill="#FFF"/>
<path d="M43.2707 17.845V22.7127H25.4146V0.444946H42.8565V5.31115H31.6427V9.06515H41.523V13.7729H31.6427V17.845H43.2707Z" fill="#FFF"/>
<path d="M49.1318 20.4535C47.2997 18.6509 46.3839 16.0954 46.3843 12.787V0.444946H52.6745V12.5962C52.6745 16.1592 54.083 17.9406 56.9 17.9404C59.6964 17.9408 61.0946 16.1594 61.0946 12.5962V0.444946H67.2901V12.7865C67.2901 16.0948 66.3741 18.6503 64.542 20.4529C62.7099 22.2555 60.1417 23.1569 56.8373 23.1569C53.5324 23.1573 50.9639 22.2561 49.1318 20.4535Z" fill="#FFF"/>
<path d="M85.0803 22.7127L80.4736 15.8097L75.9307 22.7127H68.7506L76.8518 11.4516L69.0998 0.444946H76.1855L80.6333 6.87048L85.0165 0.444946H91.8156L84.0639 11.1959L92.3242 22.7127H85.0803Z" fill="#FFF"/>
<path d="M108.474 23.1575L107.505 20.985H102.973L102.015 23.1575H101.151L104.83 14.9931H105.671L109.35 23.1575H108.474ZM103.288 20.2608H107.19L105.227 15.8457L103.288 20.2608Z" fill="#FFF"/>
<path d="M119.819 16.6517C119.492 16.3324 119.115 16.0832 118.686 15.9041C118.258 15.7251 117.814 15.6355 117.355 15.6355C116.724 15.6355 116.144 15.7873 115.615 16.091C115.093 16.3947 114.676 16.8113 114.365 17.3408C114.061 17.8625 113.909 18.4348 113.909 19.0578C113.909 19.6807 114.061 20.253 114.365 20.7747C114.676 21.2964 115.093 21.713 115.615 22.0245C116.144 22.3282 116.724 22.48 117.355 22.48C117.807 22.48 118.246 22.3944 118.675 22.2231C119.103 22.044 119.485 21.7987 119.819 21.4872L120.31 22.0128C119.905 22.3866 119.442 22.6825 118.92 22.9005C118.398 23.1185 117.865 23.2275 117.32 23.2275C116.549 23.2275 115.84 23.0407 115.194 22.6669C114.548 22.2931 114.034 21.787 113.652 21.1485C113.279 20.51 113.092 19.8131 113.092 19.0578C113.092 18.3025 113.282 17.6094 113.664 16.9787C114.046 16.348 114.559 15.8496 115.206 15.4837C115.86 15.1099 116.572 14.923 117.343 14.923C117.896 14.923 118.429 15.0281 118.943 15.2384C119.457 15.4408 119.909 15.7251 120.298 16.091L119.819 16.6517Z" fill="#FFF"/>
<path d="M131.526 23.1575L130.556 20.985H126.024L125.067 23.1575H124.202L127.881 14.9931H128.722L132.402 23.1575H131.526ZM126.34 20.2608H130.241L128.279 15.8457L126.34 20.2608Z" fill="#FFF"/>
<path d="M140.413 14.9931C141.192 14.9931 141.9 15.1722 142.539 15.5304C143.185 15.8886 143.691 16.383 144.057 17.0138C144.431 17.6367 144.618 18.3258 144.618 19.0811C144.618 19.8364 144.431 20.5256 144.057 21.1485C143.691 21.7714 143.185 22.262 142.539 22.6202C141.893 22.9784 141.176 23.1575 140.39 23.1575H137.131V14.9931H140.413ZM140.437 22.4333C141.052 22.4333 141.616 22.2854 142.13 21.9895C142.644 21.6936 143.049 21.2926 143.345 20.7864C143.649 20.2725 143.8 19.7041 143.8 19.0811C143.8 18.4582 143.649 17.8898 143.345 17.3758C143.041 16.8619 142.628 16.457 142.107 16.1611C141.593 15.8652 141.024 15.7173 140.401 15.7173H137.937V22.4333H140.437Z" fill="#FFF"/>
<path d="M149.78 14.9931H155.246V15.7173H150.586V18.6373H154.756V19.3614H150.586V22.4333H155.398V23.1575H149.78V14.9931Z" fill="#FFF"/>
<path d="M160.764 14.9814H161.768L164.969 21.1135L168.134 14.9814H169.139V23.1575H168.391L168.379 16.1027L165.179 22.2815H164.735L161.523 16.1027V23.1575H160.764V14.9814Z" fill="#FFF"/>
<path d="M181 14.9931L177.858 20.2491V23.1575H177.052V20.2491L173.863 14.9931H174.704L177.461 19.3848L180.159 14.9931H181Z" fill="#FFF"/>
<path d="M105.66 0.695102C106.438 0.695102 107.147 0.874197 107.785 1.23239C108.432 1.59057 108.938 2.08503 109.304 2.71575C109.677 3.33869 109.864 4.02781 109.864 4.78312C109.864 5.53843 109.677 6.22756 109.304 6.85049C108.938 7.47343 108.432 7.96399 107.785 8.32218C107.139 8.68037 106.423 8.85946 105.636 8.85946H102.377V0.695102H105.66ZM105.683 8.1353C106.298 8.1353 106.863 7.98735 107.376 7.69146C107.89 7.39556 108.295 6.99455 108.591 6.48841C108.895 5.97449 109.047 5.40606 109.047 4.78312C109.047 4.16019 108.895 3.59176 108.591 3.07783C108.288 2.56391 107.875 2.159 107.353 1.86311C106.839 1.56721 106.271 1.41927 105.648 1.41927H103.183V8.1353H105.683Z" fill="#FFF"/>
<path d="M115.027 0.695102H120.493V1.41927H115.832V4.33928H120.002V5.06344H115.832V8.1353H120.645V8.85946H115.027V0.695102Z" fill="#FFF"/>
<path d="M130.542 2.02663C130.207 1.81639 129.841 1.65676 129.444 1.54775C129.047 1.43095 128.673 1.37255 128.323 1.37255C127.762 1.37255 127.311 1.48545 126.968 1.71127C126.633 1.9293 126.466 2.22908 126.466 2.61063C126.466 2.94546 126.559 3.218 126.746 3.42824C126.933 3.63848 127.163 3.80589 127.435 3.93048C127.708 4.04728 128.082 4.17965 128.557 4.3276C129.109 4.49112 129.553 4.65464 129.888 4.81816C130.231 4.9739 130.519 5.20361 130.752 5.50729C130.994 5.81097 131.115 6.21198 131.115 6.71033C131.115 7.14639 130.99 7.53183 130.741 7.86666C130.499 8.20149 130.157 8.46234 129.713 8.64922C129.269 8.82832 128.759 8.91786 128.183 8.91786C127.614 8.91786 127.058 8.80496 126.513 8.57914C125.975 8.35333 125.512 8.05354 125.123 7.67978L125.496 7.01401C125.862 7.3722 126.287 7.65252 126.77 7.85498C127.252 8.05743 127.727 8.15866 128.195 8.15866C128.817 8.15866 129.312 8.03407 129.678 7.7849C130.044 7.52794 130.227 7.18532 130.227 6.75705C130.227 6.41444 130.133 6.13412 129.947 5.91609C129.76 5.69806 129.53 5.53065 129.257 5.41385C128.985 5.29705 128.603 5.16078 128.113 5.00504C127.56 4.83374 127.116 4.67411 126.781 4.52616C126.446 4.37043 126.162 4.14461 125.929 3.84872C125.695 3.54504 125.578 3.15181 125.578 2.66903C125.578 2.25634 125.695 1.89426 125.929 1.58279C126.162 1.27132 126.489 1.03382 126.91 0.870304C127.33 0.698996 127.817 0.613342 128.37 0.613342C128.814 0.613342 129.257 0.679529 129.701 0.811904C130.153 0.944277 130.55 1.11948 130.893 1.33751L130.542 2.02663Z" fill="#FFF"/>
<path d="M136.504 0.695102H137.31V8.85946H136.504V0.695102Z" fill="#FFF"/>
<path d="M149.002 4.86488H149.715V7.85498C149.317 8.18981 148.854 8.45456 148.325 8.64922C147.803 8.8361 147.27 8.92954 146.724 8.92954C145.954 8.92954 145.241 8.74266 144.587 8.3689C143.941 7.99514 143.427 7.489 143.045 6.85049C142.664 6.21198 142.473 5.51507 142.473 4.75976C142.473 4.00445 142.664 3.31144 143.045 2.68071C143.427 2.04999 143.945 1.55164 144.599 1.18567C145.261 0.811903 145.981 0.625022 146.76 0.625022C147.312 0.625022 147.846 0.722356 148.36 0.917024C148.881 1.11169 149.341 1.38423 149.738 1.73463L149.271 2.30695C148.936 1.99548 148.55 1.75799 148.114 1.59447C147.678 1.42316 147.227 1.33751 146.76 1.33751C146.129 1.33751 145.549 1.49324 145.019 1.80471C144.49 2.10839 144.069 2.52109 143.758 3.04279C143.446 3.5645 143.291 4.13683 143.291 4.75976C143.291 5.39049 143.446 5.9706 143.758 6.50009C144.069 7.0218 144.49 7.43839 145.019 7.74986C145.556 8.05354 146.14 8.20538 146.771 8.20538C147.161 8.20538 147.546 8.14309 147.928 8.0185C148.317 7.88613 148.675 7.70314 149.002 7.46954V4.86488Z" fill="#FFF"/>
<path d="M161.393 0.695102H162.188V8.85946H161.335L156.277 1.94487V8.85946H155.471V0.695102H156.324L161.393 7.6097V0.695102Z" fill="#FFF"/>
</svg>
