<svg width="94" height="94" viewBox="0 0 94 94" fill="none" xmlns="http://www.w3.org/2000/svg">
<path d="M43.2031 3.45785C44.4145 -0.197817 49.5855 -0.197804 50.7969 3.45787L60.0577 31.4036C60.4553 32.6034 61.3966 33.5447 62.5964 33.9423L90.5421 43.203C94.1978 44.4145 94.1978 49.5855 90.5421 50.7969L62.5964 60.0577C61.3966 60.4553 60.4553 61.3966 60.0577 62.5964L50.797 90.5421C49.5855 94.1978 44.4145 94.1978 43.2031 90.5421L33.9423 62.5964C33.5447 61.3966 32.6034 60.4553 31.4036 60.0577L3.45785 50.7969C-0.197817 49.5855 -0.197803 44.4145 3.45787 43.2031L31.4036 33.9423C32.6034 33.5447 33.5447 32.6034 33.9423 31.4036L43.2031 3.45785Z" fill="url(#paint0_linear_105_49)"/>
<defs>
<linearGradient id="paint0_linear_105_49" x1="38.5" y1="10" x2="54" y2="102" gradientUnits="userSpaceOnUse">
<stop stop-color="#0A61FF"/>
<stop offset="1" stop-color="#A9C7FF"/>
</linearGradient>
</defs>
</svg>
