<svg width="117" height="28" viewBox="0 0 117 28" fill="none" xmlns="http://www.w3.org/2000/svg">
<g clip-path="url(#clip0_302_110)">
<path d="M0 11.8982V1.42494H2.97727V12.0736C2.96851 12.439 3.03282 12.8024 3.16642 13.1425C3.30001 13.4825 3.50018 13.7925 3.75516 14.0539C4.01014 14.3154 4.31479 14.5231 4.65114 14.6649C4.9875 14.8067 5.34877 14.8797 5.71373 14.8796C6.08232 14.8818 6.44768 14.8107 6.78863 14.6705C7.12959 14.5302 7.43936 14.3236 7.7 14.0626C7.96063 13.8016 8.16695 13.4914 8.307 13.15C8.44705 12.8086 8.51805 12.4427 8.51587 12.0736V1.42494H11.4876V11.8982C11.4876 15.6469 9.03579 17.6418 5.73562 17.6418C2.43545 17.6418 0 15.6469 0 11.8982Z" fill="#7B61FF"/>
<path d="M19.1935 11.9201L15.9098 17.4007H12.5603L17.4422 9.31141L12.6698 1.40302H15.9973L19.2099 6.7246L22.428 1.40302H25.7774L20.9612 9.31141L25.8869 17.4007H22.5594L19.1935 11.9201Z" fill="#7B61FF"/>
<path d="M32.0056 1.2057H34.0634V11.5475L40.6309 4.59815H43.2141L38.0477 10.0348L43.3455 17.4226H40.9593L36.581 11.2844L34.0689 13.915V17.4226H32.0111L32.0056 1.2057Z" fill="black"/>
<path d="M46.3228 8.59355e-06C46.615 0.00218443 46.9001 0.0910894 47.1419 0.255487C47.3836 0.419884 47.5713 0.652385 47.6812 0.923593C47.791 1.1948 47.8181 1.49253 47.7589 1.77914C47.6998 2.06575 47.5571 2.32836 47.3489 2.53376C47.1407 2.73917 46.8764 2.87814 46.5893 2.93311C46.3023 2.98808 46.0054 2.95657 45.7362 2.84258C45.4671 2.72859 45.2377 2.53724 45.0771 2.2927C44.9165 2.04817 44.832 1.76144 44.8342 1.46879C44.8236 1.27125 44.8551 1.07373 44.9265 0.889273C44.9979 0.70482 45.1076 0.537646 45.2483 0.398805C45.389 0.259964 45.5575 0.152616 45.7428 0.0838689C45.928 0.0151221 46.1257 -0.0134607 46.3228 8.59355e-06ZM45.2282 4.59816H47.3298V17.4226H45.2282V4.59816Z" fill="black"/>
<path d="M49.3657 4.59815H51.5987V2.1648L53.651 0.745346V4.58171H56.6501V6.50538H53.651V12.4682C53.651 15.0331 54.1107 15.4715 56.6501 15.4715V17.4445H56.3437C52.6002 17.4445 51.5987 16.3484 51.5987 12.512V6.50538H49.3657V4.59815Z" fill="black"/>
<path d="M58.0348 11.0213C58.0068 10.1481 58.1549 9.27816 58.4703 8.46353C58.7857 7.6489 59.2619 6.9063 59.8703 6.28012C60.4788 5.65393 61.207 5.157 62.0116 4.81905C62.8162 4.4811 63.6805 4.30905 64.553 4.31318C65.4708 4.30779 66.3766 4.52179 67.1953 4.93738C68.0139 5.35297 68.7216 5.95816 69.2597 6.70268V4.57625H71.3175V17.4007H69.2597V15.2085C68.7459 15.9888 68.0259 16.611 67.18 17.0061C66.3647 17.417 65.4658 17.6345 64.553 17.6418C63.6889 17.6426 62.8333 17.4713 62.036 17.1377C61.2387 16.8041 60.5157 16.315 59.9091 15.6988C59.3024 15.0827 58.8243 14.3518 58.5025 13.5487C58.1807 12.7457 58.0217 11.8865 58.0348 11.0213ZM69.413 11.0213C69.3915 10.1081 69.1016 9.2214 68.5797 8.47214C68.0578 7.72289 67.3269 7.14428 66.4785 6.80862C65.6301 6.47296 64.7017 6.39514 63.8093 6.58488C62.9169 6.77463 62.1002 7.22351 61.4612 7.87545C60.8221 8.5274 60.3891 9.35347 60.2163 10.2505C60.0434 11.1474 60.1384 12.0755 60.4893 12.9188C60.8402 13.762 61.4315 14.483 62.1893 14.9916C62.9471 15.5002 63.8378 15.7739 64.75 15.7784C65.3713 15.7771 65.986 15.6518 66.5583 15.4098C67.1306 15.1678 67.649 14.814 68.0832 14.369C68.5174 13.924 68.8586 13.3968 69.0869 12.8183C69.3152 12.2397 69.4261 11.6214 69.413 10.9994V11.0213Z" fill="black"/>
<path d="M76.1556 15.2742V17.4226H74.1471V1.2057H76.1775V6.7246C76.7113 5.9808 77.4151 5.37576 78.2301 4.96005C79.0452 4.54434 79.9477 4.33006 80.8623 4.3351C82.6303 4.3351 84.3258 5.03838 85.5759 6.29024C86.826 7.5421 87.5283 9.23998 87.5283 11.0104C87.5283 12.7808 86.826 14.4786 85.5759 15.7305C84.3258 16.9824 82.6303 17.6856 80.8623 17.6856C79.9419 17.6931 79.0332 17.4777 78.2137 17.0579C77.3942 16.638 76.6882 16.0261 76.1556 15.2742ZM85.2845 10.9994C85.2607 10.0865 84.9683 9.20095 84.4439 8.45384C83.9195 7.70672 83.1864 7.13132 82.3367 6.79983C81.487 6.46833 80.5584 6.39549 79.6674 6.59046C78.7765 6.78543 77.9629 7.23951 77.3288 7.89575C76.6946 8.55198 76.268 9.38114 76.1026 10.2792C75.9372 11.1773 76.0404 12.1043 76.3991 12.9439C76.7578 13.7835 77.3561 14.4983 78.119 14.9987C78.8819 15.499 79.7753 15.7627 80.6872 15.7565C81.3021 15.7501 81.9096 15.6216 82.4745 15.3784C83.0394 15.1352 83.5505 14.7821 83.9781 14.3396C84.4057 13.8971 84.7414 13.374 84.9657 12.8006C85.1899 12.2273 85.2983 11.615 85.2845 10.9994Z" fill="black"/>
<path d="M89.2742 11.0213C89.2563 10.1341 89.4178 9.25235 89.7491 8.42927C90.0805 7.60619 90.5747 6.85877 91.2021 6.23203C91.8295 5.60528 92.5771 5.11218 93.3999 4.7824C94.2226 4.45263 95.1035 4.29301 95.9895 4.31316C97.2689 4.27943 98.5286 4.63409 99.6031 5.33052C100.678 6.02696 101.517 7.03259 102.01 8.21529L100.149 9.00449C99.8156 8.17873 99.2391 7.4742 98.496 6.98468C97.753 6.49516 96.8787 6.24386 95.9895 6.26422C94.7325 6.27295 93.5304 6.78135 92.6477 7.67759C91.7651 8.57383 91.2741 9.78449 91.2828 11.0432C91.2915 12.302 91.7992 13.5057 92.6942 14.3896C93.5892 15.2735 94.7982 15.7652 96.0552 15.7565C96.9632 15.7556 97.8491 15.4755 98.593 14.954C99.3369 14.4326 99.9029 13.6949 100.215 12.8409L102.119 13.6739C101.632 14.8873 100.786 15.9222 99.6938 16.6394C98.6019 17.3566 97.3168 17.7217 96.0114 17.6856C95.1273 17.7086 94.2478 17.5525 93.4254 17.2268C92.6031 16.9011 91.8549 16.4124 91.2257 15.79C90.5966 15.1677 90.0994 14.4245 89.7641 13.6051C89.4287 12.7856 89.2621 11.9068 89.2742 11.0213Z" fill="black"/>
<path d="M103.695 11.0213C103.667 10.1476 103.816 9.27724 104.131 8.46224C104.447 7.64725 104.924 6.90439 105.533 6.27813C106.142 5.65187 106.871 5.15507 107.676 4.81745C108.481 4.47982 109.346 4.30831 110.219 4.31318C111.137 4.30779 112.043 4.52179 112.861 4.93738C113.68 5.35298 114.388 5.95816 114.926 6.70268V4.57625H116.984V17.4007H114.926V15.2085C114.412 15.9888 113.692 16.611 112.846 17.0061C112.031 17.417 111.132 17.6345 110.219 17.6418C109.355 17.6434 108.498 17.4725 107.7 17.1393C106.902 16.806 106.179 16.317 105.572 15.7008C104.964 15.0845 104.486 14.3534 104.164 13.55C103.841 12.7466 103.682 11.887 103.695 11.0213ZM115.079 11.0213C115.057 10.1081 114.768 9.2214 114.246 8.47214C113.724 7.72289 112.993 7.14428 112.145 6.80862C111.296 6.47296 110.368 6.39514 109.475 6.58489C108.583 6.77463 107.766 7.22351 107.127 7.87545C106.488 8.5274 106.055 9.35347 105.882 10.2505C105.709 11.1474 105.804 12.0755 106.155 12.9188C106.506 13.762 107.098 14.483 107.855 14.9916C108.613 15.5002 109.504 15.7739 110.416 15.7784C111.037 15.7771 111.652 15.6518 112.224 15.4098C112.797 15.1678 113.315 14.814 113.749 14.369C114.183 13.924 114.525 13.3968 114.753 12.8183C114.981 12.2397 115.092 11.6214 115.079 10.9994V11.0213Z" fill="black"/>
<path d="M26.6531 27.7863C34.0799 26.3613 41.5613 25.2597 49.0921 24.3061C56.6228 23.3525 64.1316 22.662 71.6788 22.1139L74.5083 21.8947L77.3433 21.7303C79.2314 21.6152 81.1196 21.4782 83.0077 21.3795L88.6831 21.1822C90.5768 21.1165 92.4704 21.1493 94.364 21.1822C96.2577 21.2151 98.1513 21.2206 100.045 21.2973C101.939 21.374 103.827 21.4672 105.715 21.5823C109.497 21.7686 113.267 22.2126 117.027 22.6346V22.8483C115.134 22.947 113.246 22.9634 111.352 23.0237C109.458 23.084 107.581 23.0675 105.693 23.1278C103.805 23.1881 101.922 23.1991 100.039 23.2319C98.1568 23.2648 96.2741 23.3306 94.3914 23.3744C86.8607 23.5663 79.3245 23.5498 71.7883 23.8841C64.2521 24.2184 56.7322 24.7117 49.2179 25.4022C41.7036 26.0928 34.1948 26.8765 26.7297 28.0055L26.6531 27.7863Z" fill="#7B61FF"/>
</g>
<defs>
<clipPath id="clip0_302_110">
<rect width="117" height="28" fill="white"/>
</clipPath>
</defs>
</svg>
